<svg width="21" height="21" viewBox="0 0 21 21" fill="none" xmlns="http://www.w3.org/2000/svg">
<path d="M10.5 0C6.1507 0 2.625 3.5257 2.625 7.875C2.625 9.73809 3.44597 11.3764 4.35455 12.7969L9.9645 20.7231C10.0875 20.897 10.2874 21 10.5 21C10.7126 21 10.9125 20.897 11.0355 20.7231L16.6455 12.7969C17.5137 11.6281 18.375 9.73809 18.375 7.875C18.375 3.5257 14.8493 0 10.5 0ZM10.5 12.4688C7.96294 12.4688 5.90625 10.4121 5.90625 7.875C5.90625 5.33794 7.96294 3.28125 10.5 3.28125C13.0371 3.28125 15.0938 5.33794 15.0938 7.875C15.0938 10.4121 13.0371 12.4688 10.5 12.4688Z" fill="white"/>
<path d="M10.5 3.9375C8.32552 3.9375 6.5625 5.70052 6.5625 7.875C6.5625 10.0495 8.32552 11.8125 10.5 11.8125C12.6745 11.8125 14.4375 10.0495 14.4375 7.875C14.4375 5.70052 12.6745 3.9375 10.5 3.9375ZM10.5 11.1562C8.68777 11.1562 7.21875 9.68691 7.21875 7.875C7.21875 6.06309 8.68777 4.59375 10.5 4.59375C12.3122 4.59375 13.7812 6.06309 13.7812 7.875C13.7812 9.68691 12.3122 11.1562 10.5 11.1562Z" fill="white"/>
</svg>
