<svg width="23" height="18" viewBox="0 0 23 18" fill="none" xmlns="http://www.w3.org/2000/svg">
<path d="M5.0114 1.44467C5.11024 1.28709 5.25307 1.15611 5.4254 1.06499C5.59774 0.973863 5.79347 0.92584 5.99275 0.925781H21.821C22.0189 0.925839 22.2134 0.973241 22.385 1.06324C22.5565 1.15325 22.6991 1.2827 22.7985 1.43864C22.8978 1.59458 22.9505 1.77155 22.9512 1.95184C22.9518 2.13213 22.9005 2.30942 22.8023 2.46598L18.5999 9.16211L22.8023 15.8583C22.9005 16.0148 22.9518 16.1921 22.9512 16.3724C22.9505 16.5527 22.8978 16.7296 22.7985 16.8856C22.6991 17.0415 22.5565 17.171 22.385 17.261C22.2134 17.351 22.0189 17.3984 21.821 17.3984H5.99275C5.79347 17.3984 5.59774 17.3504 5.4254 17.2592C5.25307 17.1681 5.11024 17.0371 5.0114 16.8796L0.489056 9.67277C0.391279 9.51731 0.33984 9.34127 0.33984 9.16211C0.33984 8.98296 0.391279 8.80692 0.489056 8.65146L5.0114 1.44467ZM6.64849 15.3394H19.8718L16.3161 9.67277C16.2184 9.51731 16.1669 9.34127 16.1669 9.16211C16.1669 8.98296 16.2184 8.80692 16.3161 8.65146L19.8718 2.98486H6.64849L2.77171 9.16211L6.64849 15.3394Z" fill="#F7931D"/>
</svg>
