<svg width="35" height="35" viewBox="0 0 35 35" fill="none" xmlns="http://www.w3.org/2000/svg">
<path d="M13.9559 27.4466C13.6788 27.4466 13.4017 27.3445 13.1829 27.1258L4.33086 18.2737C3.90794 17.8508 3.90794 17.1508 4.33086 16.7279L13.1829 7.87578C13.6059 7.45286 14.3059 7.45286 14.7288 7.87578C15.1517 8.2987 15.1517 8.9987 14.7288 9.42161L6.64961 17.5008L14.7288 25.5799C15.1517 26.0029 15.1517 26.7029 14.7288 27.1258C14.5246 27.3445 14.2329 27.4466 13.9559 27.4466Z" fill="#F7931D"/>
<path d="M29.8953 18.5938H5.35156C4.75365 18.5938 4.25781 18.0979 4.25781 17.5C4.25781 16.9021 4.75365 16.4062 5.35156 16.4062H29.8953C30.4932 16.4062 30.9891 16.9021 30.9891 17.5C30.9891 18.0979 30.4932 18.5938 29.8953 18.5938Z" fill="#F7931D"/>
</svg>
