<svg width="24" height="24" viewBox="0 0 24 24" fill="none" xmlns="http://www.w3.org/2000/svg">
<path d="M22.5406 7.51441C22.4196 7.05531 22.1771 6.63731 21.8386 6.30441C21.494 5.96496 21.0675 5.72038 20.6006 5.59441C18.8806 5.19141 12.0006 5.19141 12.0006 5.19141C12.0006 5.19141 5.12057 5.19141 3.40057 5.63341C2.93057 5.76141 2.50257 6.00641 2.16257 6.34341C1.82257 6.68041 1.57957 7.09741 1.46157 7.55341C1.14666 9.22721 0.992292 10.9273 1.00057 12.6304C0.989405 14.3469 1.14345 16.0604 1.46057 17.7474C1.59057 18.1884 1.83857 18.5894 2.17857 18.9124C2.51857 19.2354 2.93857 19.4684 3.39957 19.5904C5.11957 20.0314 11.9996 20.0314 11.9996 20.0314C11.9996 20.0314 18.8796 20.0314 20.5996 19.5904C21.0696 19.4624 21.4966 19.2174 21.8376 18.8804C22.1776 18.5434 22.4206 18.1254 22.5386 17.6704C22.8516 16.0074 23.0056 14.3204 22.9986 12.6304C23.0098 10.9139 22.8557 9.20036 22.5386 7.51341L22.5406 7.51441Z" stroke="#F7931D" stroke-width="1.825" stroke-linecap="round" stroke-linejoin="round"/>
<path d="M9.75 15.7712L15.5 12.6322L9.75 9.49219V15.7712Z" stroke="#F7931D" stroke-width="1.825" stroke-linecap="round" stroke-linejoin="round"/>
</svg>
