<svg width="60" height="56" viewBox="0 0 60 56" fill="none" xmlns="http://www.w3.org/2000/svg">
<mask id="mask0_644_14675" style="mask-type:luminance" maskUnits="userSpaceOnUse" x="0" y="0" width="60" height="56">
<path d="M0.09375 0.269531H59.0625V55.8886H0.09375V0.269531Z" fill="white"/>
</mask>
<g mask="url(#mask0_644_14675)">
<path fill-rule="evenodd" clip-rule="evenodd" d="M1.21608 35.0561H3.52288V31.7274C3.52288 31.4464 3.58297 31.1716 3.69647 30.9125C3.81332 30.6502 3.9769 30.4191 4.18721 30.2192C4.40087 30.0194 4.64791 29.8633 4.92499 29.7571C5.20207 29.6478 5.48917 29.5916 5.78963 29.5916H8.921C9.22146 29.5916 9.51189 29.6478 9.78898 29.7571C10.0661 29.8633 10.3131 30.0194 10.5234 30.2192C10.7371 30.4191 10.9007 30.6502 11.0175 30.9125C11.131 31.1716 11.1877 31.4464 11.1911 31.7274V35.0561H13.4979C13.6448 35.0592 13.7817 35.0842 13.9152 35.1373C14.0521 35.1872 14.1689 35.2622 14.2724 35.359C14.3759 35.4558 14.4527 35.5682 14.5094 35.6931C14.5662 35.8211 14.5929 35.9523 14.5929 36.0897V51.4152C14.5929 51.5526 14.5662 51.6837 14.5094 51.8086C14.4527 51.9367 14.3759 52.0459 14.2724 52.1427C14.1689 52.2395 14.0521 52.3145 13.9152 52.3676C13.7817 52.4207 13.6448 52.4456 13.4979 52.4456H1.21608C1.06919 52.4456 0.928976 52.4207 0.795442 52.3676C0.661908 52.3145 0.545065 52.2395 0.441576 52.1427C0.338087 52.0459 0.261305 51.9367 0.204553 51.8086C0.147801 51.6837 0.121094 51.5526 0.121094 51.4152V36.0897C0.121094 35.9523 0.147801 35.8211 0.204553 35.6931C0.261305 35.5682 0.338087 35.4558 0.441576 35.359C0.545065 35.2622 0.661908 35.1872 0.795442 35.1373C0.928976 35.0842 1.06919 35.0561 1.21608 35.0561ZM34.8634 8.39879L40.5486 5.30745L27.8795 2.33478L25.6295 3.55882L34.8634 8.39879ZM21.8271 19.9335L14.6596 14.4316L16.2754 13.423L23.7967 15.9741C24.0504 16.0616 24.2908 16.0397 24.5245 15.9148L51.7855 1.08575C53.428 0.189578 55.9117 0.133372 57.6377 0.857806C58.2352 1.10761 59.0398 1.59473 58.9563 2.30667C58.8662 3.0717 57.9682 4.05843 55.8183 5.22627C53.7418 6.35976 51.6653 7.49013 49.5889 8.61737C49.3819 8.72666 49.2484 8.88903 49.1849 9.10137L43.483 27.7993L41.233 29.0233L41.4833 14.3785C41.4833 14.3067 41.4733 14.238 41.4566 14.1693C41.4366 14.0975 41.4099 14.0319 41.3732 13.9694C41.3365 13.907 41.2897 13.8508 41.2363 13.8008C41.1862 13.7477 41.1261 13.704 41.0594 13.6665C40.9959 13.6291 40.9258 13.601 40.8557 13.5822C40.7823 13.5635 40.7055 13.551 40.6321 13.551C40.5553 13.5479 40.4818 13.5573 40.4084 13.5729C40.3316 13.5885 40.2615 13.6135 40.1947 13.6478C37.4473 15.0717 24.1439 21.7134 21.8271 19.9335ZM20.445 13.1014L16.5058 11.7618C16.2153 11.6431 15.9416 11.6681 15.6778 11.8305L14.3759 12.6455C14.3158 12.6205 14.259 12.5986 14.1989 12.5737C15.7747 11.1092 17.5406 9.89137 19.5003 8.92026C21.4565 7.94914 23.523 7.2653 25.6963 6.86874C23.3694 8.30511 21.6502 10.6876 20.445 13.1014ZM30.8473 8.1646L33.1141 9.35117L30.8473 10.5846V8.1646ZM30.8473 19.6556V26.8531H39.5371L39.6806 18.4097C39.4603 17.6228 39.2166 16.8641 38.9495 16.1365L38.8995 16.1459C36.9532 17.0889 33.9153 18.494 30.8473 19.6556ZM30.8473 28.4925V38.7407C33.5447 38.7782 36.2221 39.0249 38.8761 39.4776C39.7941 37.0545 40.4351 34.238 40.7155 31.1935C40.6488 31.2247 40.5753 31.2466 40.5019 31.2591C40.4284 31.2715 40.3516 31.2747 40.2782 31.2684C40.2014 31.2622 40.128 31.2497 40.0545 31.2247C39.9844 31.2029 39.9177 31.1685 39.8542 31.131C39.7908 31.0904 39.7374 31.0436 39.6873 30.9874C39.6372 30.9343 39.5938 30.875 39.5638 30.8094C39.5304 30.747 39.5037 30.6783 39.4903 30.6096C39.477 30.5377 39.4703 30.469 39.477 30.3972L39.5104 28.4956L30.8473 28.4925ZM30.8473 40.3832V48.0428C33.7918 47.6057 36.4057 44.9796 38.2251 41.0327C35.7848 40.6361 33.3244 40.4175 30.8473 40.3832ZM29.1047 48.0397V40.3832C26.641 40.4175 24.1907 40.633 21.7603 41.0264C23.1023 43.9023 25.5794 47.4995 29.1047 48.0397ZM29.1047 38.7407V28.4925H19.083C19.1698 32.5737 19.9042 36.3426 21.1027 39.4745C23.75 39.0217 26.4173 38.7782 29.1047 38.7407ZM20.7421 21.2138L19.7807 20.4737C19.3567 22.5815 19.123 24.7079 19.083 26.8531H29.1047V20.2864C25.4993 21.526 22.1075 22.2661 20.7421 21.2138ZM29.1047 11.5307L24.0037 14.3067L22.0875 13.6572C23.4996 10.8875 25.8598 7.8055 29.1047 7.30902V11.5307ZM7.5022 26.8531H17.3403C17.3871 24.3082 17.6942 21.7946 18.2617 19.3059L12.65 14.9968C12.4864 14.8719 12.3862 14.7126 12.3462 14.5159C10.8606 16.277 9.70552 18.2099 8.87761 20.3207C8.04969 22.4285 7.589 24.6049 7.5022 26.8531ZM45.5828 26.8531H52.4499C52.3764 24.9484 52.0326 23.0842 51.4216 21.2669C50.8107 19.4495 49.9528 17.7415 48.8478 16.1427L45.5828 26.8531ZM52.4499 28.4925H45.0821C45.0287 28.7579 44.8718 28.9515 44.6181 29.0733L42.5383 30.2036C42.3079 33.7196 41.6035 36.9827 40.5419 39.7993C42.7018 40.2458 44.795 40.8828 46.8247 41.7071C48.5473 39.8804 49.8927 37.8289 50.8575 35.5619C51.8222 33.2918 52.353 30.9374 52.4499 28.4925ZM17.3403 28.4925H10.9908C11.5917 28.8359 12.0657 29.295 12.4129 29.8695C12.7568 30.4472 12.9304 31.0655 12.9304 31.7274V33.4167H13.4979C13.8751 33.4167 14.2357 33.4854 14.5829 33.6197C14.93 33.7571 15.2372 33.9507 15.5042 34.2005C15.768 34.4503 15.975 34.7407 16.1185 35.0655C16.2621 35.3933 16.3355 35.7337 16.3355 36.0897V40.5799C17.3103 40.2895 18.3252 40.0303 19.3868 39.8055C18.1683 36.5424 17.4271 32.6642 17.3403 28.4956V28.4925ZM39.9043 41.3449C41.8339 41.7321 43.71 42.2723 45.5395 42.9687C43.9738 44.3863 42.2211 45.5666 40.2915 46.5065C38.3586 47.4464 36.3256 48.1053 34.189 48.4893C36.4625 47.0873 38.4388 44.583 39.9043 41.3449ZM25.6963 48.4769C22.2477 47.8492 19.1264 46.5315 16.3355 44.5206V42.2973C17.544 41.9226 18.7725 41.6041 20.021 41.348C21.2262 44.0366 23.0756 46.8594 25.6963 48.4769ZM12.0657 53.6166C12.2193 53.6166 12.3695 53.6447 12.5097 53.7009C12.6533 53.7571 12.7768 53.8352 12.887 53.9382C12.9938 54.0381 13.0773 54.1568 13.1374 54.2911C13.1941 54.4253 13.2241 54.5627 13.2241 54.7064C13.2241 54.8531 13.1941 54.9905 13.1374 55.1248C13.0773 55.2591 12.9938 55.3746 12.887 55.4776C12.7768 55.5807 12.6533 55.6587 12.5097 55.715C12.3695 55.7712 12.2193 55.7961 12.0657 55.7961C11.9155 55.7961 11.7653 55.7712 11.6251 55.715C11.4815 55.6587 11.358 55.5807 11.2478 55.4776C11.141 55.3746 11.0576 55.2591 10.9975 55.1248C10.9407 54.9905 10.9107 54.8531 10.9107 54.7064C10.9107 54.5627 10.9407 54.4253 10.9975 54.2911C11.0576 54.1568 11.141 54.0381 11.2478 53.9382C11.358 53.8352 11.4815 53.7571 11.6251 53.7009C11.7653 53.6447 11.9155 53.6166 12.0657 53.6166ZM2.64489 53.6166C2.79846 53.6166 2.94534 53.6447 3.08889 53.7009C3.2291 53.7571 3.35596 53.8352 3.46279 53.9382C3.57296 54.0381 3.65641 54.1568 3.71317 54.2911C3.77326 54.4253 3.8033 54.5627 3.8033 54.7064C3.8033 54.8531 3.77326 54.9905 3.71317 55.1248C3.65641 55.2591 3.57296 55.3746 3.46279 55.4776C3.35596 55.5807 3.2291 55.6587 3.08889 55.715C2.94534 55.7712 2.79846 55.7961 2.64489 55.7961C2.49133 55.7961 2.34444 55.7712 2.20423 55.715C2.06068 55.6587 1.93716 55.5807 1.82699 55.4776C1.72017 55.3746 1.63671 55.2591 1.57662 55.1248C1.51987 54.9905 1.48982 54.8531 1.48982 54.7064C1.48982 54.5627 1.51987 54.4253 1.57662 54.2911C1.63671 54.1568 1.72017 54.0381 1.82699 53.9382C1.93716 53.8352 2.06068 53.7571 2.20423 53.7009C2.34444 53.6447 2.49133 53.6166 2.64489 53.6166ZM5.2655 35.0561H9.44847V31.7274C9.44847 31.5932 9.39505 31.4745 9.29156 31.3777C9.19141 31.2809 9.06789 31.2341 8.921 31.2341H5.78963C5.64608 31.2341 5.52256 31.2809 5.41907 31.3777C5.31892 31.4745 5.2655 31.5932 5.2655 31.7274V35.0561ZM6.48734 38.3473V49.1544C6.48734 49.2637 6.50737 49.3668 6.55077 49.4698C6.59751 49.5698 6.6576 49.6572 6.74106 49.7352C6.82118 49.8102 6.91799 49.8695 7.02482 49.9132C7.13164 49.9538 7.24181 49.9757 7.35531 49.9757C7.47216 49.9757 7.58232 49.9538 7.68915 49.9132C7.79598 49.8695 7.88945 49.8102 7.97291 49.7352C8.05303 49.6572 8.11646 49.5698 8.15986 49.4698C8.2066 49.3668 8.22663 49.2637 8.22663 49.1544V38.3473C8.22663 38.2411 8.2066 38.1349 8.15986 38.035C8.11646 37.9351 8.05303 37.8445 7.97291 37.7696C7.88945 37.6915 7.79598 37.6322 7.68915 37.5916C7.58232 37.5479 7.47216 37.5292 7.35531 37.5292C7.24181 37.5292 7.13164 37.5479 7.02482 37.5916C6.91799 37.6322 6.82118 37.6915 6.74106 37.7696C6.6576 37.8445 6.59751 37.9351 6.55077 38.035C6.50737 38.1349 6.48734 38.2411 6.48734 38.3473ZM10.1896 38.3473V49.1544C10.1896 49.2637 10.2096 49.3668 10.2563 49.4698C10.2997 49.5698 10.3632 49.6572 10.4433 49.7352C10.5268 49.8102 10.6202 49.8695 10.7271 49.9132C10.8339 49.9538 10.944 49.9757 11.0609 49.9757C11.1744 49.9757 11.2879 49.9538 11.3914 49.9132C11.4982 49.8695 11.595 49.8102 11.6751 49.7352C11.7586 49.6572 11.8187 49.5698 11.8654 49.4698C11.9088 49.3668 11.9289 49.2637 11.9289 49.1544V38.3473C11.9289 38.2411 11.9088 38.1349 11.8654 38.035C11.8187 37.9351 11.7586 37.8445 11.6751 37.7696C11.595 37.6915 11.4982 37.6322 11.3914 37.5916C11.2879 37.5479 11.1744 37.5292 11.0609 37.5292C10.944 37.5292 10.8339 37.5479 10.7271 37.5916C10.6202 37.6322 10.5268 37.6915 10.4433 37.7696C10.3632 37.8445 10.2997 37.9351 10.2563 38.035C10.2096 38.1349 10.1896 38.2411 10.1896 38.3473ZM2.78176 38.3473V49.1544C2.78176 49.2637 2.80513 49.3668 2.84853 49.4698C2.89193 49.5698 2.95536 49.6572 3.03882 49.7352C3.11894 49.8102 3.21241 49.8695 3.31924 49.9132C3.42607 49.9538 3.53623 49.9757 3.65308 49.9757C3.76992 49.9757 3.88008 49.9538 3.98691 49.9132C4.09374 49.8695 4.18721 49.8102 4.27067 49.7352C4.35079 49.6572 4.41422 49.5698 4.45762 49.4698C4.50102 49.3668 4.52439 49.2637 4.52439 49.1544V38.3473C4.52439 38.2411 4.50102 38.1349 4.45762 38.035C4.41422 37.9351 4.35079 37.8445 4.27067 37.7696C4.18721 37.6915 4.09374 37.6322 3.98691 37.5916C3.88008 37.5479 3.76992 37.5292 3.65308 37.5292C3.53623 37.5292 3.42607 37.5479 3.31924 37.5916C3.21241 37.6322 3.11894 37.6915 3.03882 37.7696C2.95536 37.8445 2.89193 37.9351 2.84853 38.035C2.80513 38.1349 2.78176 38.2411 2.78176 38.3473Z" fill="#F7931D"/>
</g>
</svg>
