<svg width="49" height="49" viewBox="0 0 49 49" fill="none" xmlns="http://www.w3.org/2000/svg">
<mask id="mask0_644_14750" style="mask-type:luminance" maskUnits="userSpaceOnUse" x="2" y="46" width="44" height="3">
<path d="M2.88867 46.3047H45.9643V48.5948H2.88867V46.3047Z" fill="white"/>
</mask>
<g mask="url(#mask0_644_14750)">
<path d="M43.5978 46.4375H5.25621C4.50108 46.4375 3.82597 46.9416 3.61461 47.6621L3.34375 48.5929H45.5103L45.2374 47.6621C45.026 46.9416 44.353 46.4375 43.5978 46.4375Z" fill="#F7931D"/>
</g>
<path d="M23.1406 7.41406H25.7118V8.753H23.1406V7.41406Z" fill="#F7931D"/>
<mask id="mask1_644_14750" style="mask-type:luminance" maskUnits="userSpaceOnUse" x="21" y="0" width="7" height="8">
<path d="M21.8008 0H27.0539V7.11516H21.8008V0Z" fill="white"/>
</mask>
<g mask="url(#mask1_644_14750)">
<path d="M25.9328 6.61918C26.5709 5.9191 26.9526 4.83937 26.9526 3.68209C26.9526 1.65122 25.8199 0 24.4245 0C23.0312 0 21.8965 1.65122 21.8965 3.68209C21.8965 4.83733 22.2782 5.9191 22.9163 6.61918H25.9328Z" fill="#F7931D"/>
</g>
<path d="M23.1406 9.55078H25.7118V40.3627H23.1406V9.55078Z" fill="#F7931D"/>
<path d="M13.8 43.5C13.0572 43.5 12.3944 43.9939 12.1851 44.7042L11.9102 45.6452H36.9425L36.6655 44.7042C36.4582 43.9939 35.7934 43.5 35.0506 43.5H13.8Z" fill="#F7931D"/>
<path d="M22.7405 41.1602H18.2363V42.7012H30.614V41.1602H22.7405Z" fill="#F7931D"/>
<mask id="mask2_644_14750" style="mask-type:luminance" maskUnits="userSpaceOnUse" x="0" y="7" width="23" height="29">
<path d="M0 7.11719H22.8511V35.3329H0V7.11719Z" fill="white"/>
</mask>
<g mask="url(#mask2_644_14750)">
<path d="M17.0983 29.7864H15.1469L10.8931 13.2211C11.244 13.2844 11.5949 13.3191 11.9396 13.3191C13.5668 13.3191 14.8206 12.8374 16.0313 12.37C16.9937 11.9985 17.9027 11.6495 18.8713 11.6168C20.2995 11.5699 21.5943 12.1985 22.3371 12.6537V9.42881C21.7441 9.22878 19.9568 8.70014 18.3583 8.97161C17.5252 9.11244 16.7187 9.54515 15.863 10.0003C14.6708 10.6371 13.4376 11.2964 11.9396 11.2964C10.2118 11.2964 9.25354 10.6963 8.78363 10.2575C8.62152 10.4412 8.43068 10.6004 8.21317 10.7269C8.02028 10.8351 7.77609 10.7698 7.66529 10.5779C7.55653 10.3881 7.6222 10.1432 7.81508 10.035C8.27678 9.7717 8.56406 9.27981 8.56406 8.75117C8.56406 7.93678 7.89716 7.27344 7.07841 7.27344C6.25967 7.27344 5.59277 7.93678 5.59277 8.75117C5.59277 9.5329 6.05036 10.3554 6.77267 11.0841L1.97098 29.7864H0.0195312C0.333488 32.6868 4.04351 34.983 8.55791 34.983C13.0744 34.983 16.7864 32.6868 17.0983 29.7864ZM14.3158 29.7864H8.9601V12.5965C9.29868 12.7557 9.64752 12.8925 10.0066 13.0027L14.3158 29.7864ZM8.15777 12.17V29.7864H2.80204L7.45188 11.6781C7.67555 11.8516 7.90947 12.0169 8.15777 12.17Z" fill="#F7931D"/>
</g>
<mask id="mask3_644_14750" style="mask-type:luminance" maskUnits="userSpaceOnUse" x="26" y="7" width="23" height="29">
<path d="M26.0039 7.11719H48.855V35.3329H26.0039V7.11719Z" fill="white"/>
</mask>
<g mask="url(#mask3_644_14750)">
<path d="M46.8799 29.7864L42.0761 11.0862C42.7985 10.3575 43.256 9.53494 43.256 8.75117C43.256 7.93678 42.5912 7.27344 41.7724 7.27344C40.9516 7.27344 40.2868 7.93678 40.2868 8.75117C40.2868 9.27981 40.572 9.7717 41.0358 10.035C41.2266 10.1432 41.2923 10.3881 41.1835 10.5779C41.0727 10.7698 40.8285 10.8351 40.6377 10.7269C40.4181 10.6024 40.2293 10.4412 40.0652 10.2575C39.5953 10.6963 38.637 11.2964 36.9092 11.2964C35.4133 11.2964 34.18 10.6392 32.9858 10.0023C32.1321 9.54515 31.3237 9.11448 30.4905 8.97161C28.892 8.70014 27.1068 9.22878 26.5117 9.42881V12.6537C27.2566 12.2026 28.5514 11.574 29.9775 11.6168C30.9461 11.6495 31.8551 11.9985 32.8175 12.37C34.0303 12.8374 35.282 13.3191 36.9092 13.3191C37.2539 13.3191 37.6048 13.2844 37.9557 13.2211L33.7019 29.7864H31.7505C32.0644 32.6868 35.7745 34.983 40.2909 34.983C44.8074 34.983 48.5174 32.6868 48.8313 29.7864H46.8799ZM41.399 11.6781L46.0488 29.7864H40.691V12.17C40.9393 12.0169 41.1753 11.8516 41.399 11.6781ZM39.8908 12.5965V29.7864H34.533L38.8442 13.0027C39.2013 12.8925 39.5522 12.7557 39.8908 12.5965Z" fill="#F7931D"/>
</g>
</svg>
