<svg width="49" height="42" viewBox="0 0 49 42" fill="none" xmlns="http://www.w3.org/2000/svg">
<mask id="mask0_644_14799" style="mask-type:luminance" maskUnits="userSpaceOnUse" x="27" y="21" width="22" height="21">
<path d="M27.3398 21.4336H48.3123V41.7702H27.3398V21.4336Z" fill="white"/>
</mask>
<g mask="url(#mask0_644_14799)">
<path d="M43.2347 30.0318L37.144 35.9016C36.7711 36.2605 36.2863 36.4369 35.7985 36.4369C35.3106 36.4369 34.8258 36.2605 34.4529 35.9016L31.4635 33.022C30.7208 32.3044 30.7208 31.1442 31.4635 30.4265C32.2062 29.7118 33.4119 29.7118 34.1546 30.4265L35.7985 32.0113L40.5436 27.4392C41.2863 26.7216 42.4889 26.7216 43.2347 27.4392C43.9774 28.1569 43.9774 29.3171 43.2347 30.0318ZM37.8245 21.5664C32.0353 21.5664 27.3398 26.0906 27.3398 31.6704C27.3398 37.2502 32.0353 41.7745 37.8245 41.7745C43.6169 41.7745 48.3123 37.2502 48.3123 31.6704C48.3123 26.0906 43.6169 21.5664 37.8245 21.5664Z" fill="#F7931D"/>
</g>
<mask id="mask1_644_14799" style="mask-type:luminance" maskUnits="userSpaceOnUse" x="0" y="0" width="41" height="42">
<path d="M0 0H40.0836V41.3371H0V0Z" fill="white"/>
</mask>
<g mask="url(#mask1_644_14799)">
<path d="M38.4056 7.62086C37.8151 7.12448 37.0352 6.90022 36.2614 7.00487C35.8357 7.06169 35.3198 7.10953 34.7449 7.10953C32.7375 7.10953 29.9936 6.5683 27.6163 4.20302C24.8072 1.41312 22.2777 0.109375 19.6674 0.109375C17.0539 0.109375 14.5276 1.41312 11.7184 4.20302C8.6606 7.24708 4.98753 7.26802 3.07332 7.00487C2.29955 6.90022 1.51646 7.12448 0.926034 7.62086C0.338717 8.11126 0 8.82294 0 9.57648V15.3716C0.00310809 15.554 0.1243 19.9765 2.46735 25.341C4.63328 30.3019 9.19198 37.0239 18.6077 40.8843C18.9433 41.0249 19.3038 41.0906 19.6674 41.0906C20.0309 41.0906 20.3883 41.0249 20.727 40.8843C22.7935 40.0351 24.6269 39.0513 26.2521 37.9748C25.8171 37.2392 25.4535 36.4528 25.177 35.6335C23.5828 36.7339 21.768 37.7296 19.7078 38.5729C19.6798 38.5848 19.6518 38.5848 19.627 38.5729C12.7501 35.7531 7.79671 31.0046 4.90985 24.4559C2.73149 19.522 2.60719 15.3566 2.60719 15.3447V9.57648C2.60719 9.56751 2.60719 9.5406 2.63827 9.51369C2.66002 9.49575 2.67866 9.49276 2.6942 9.49276H2.71285C5.11494 9.81869 9.72958 9.79178 13.5891 5.94932C15.8451 3.70664 17.8339 2.61819 19.6674 2.61819C20.5841 2.61819 21.5412 2.8903 22.548 3.4435C23.5579 3.99669 24.6176 4.82798 25.7425 5.94932C29.6051 9.79178 34.2167 9.81869 36.6219 9.49276C36.6374 9.48977 36.6654 9.48678 36.6964 9.51369C36.7275 9.5406 36.7275 9.56751 36.7275 9.57648V15.3148C36.7275 15.3656 36.6809 16.786 36.2055 18.9479C36.74 18.8821 37.2775 18.8522 37.8245 18.8522C38.1818 18.8522 38.5361 18.8642 38.8872 18.8911C39.2943 16.8159 39.3316 15.4613 39.3347 15.3447V9.57648C39.3347 8.82294 38.996 8.11126 38.4056 7.62086Z" fill="#F7931D"/>
</g>
<path d="M22.2596 20.5824V24.9302C22.2596 26.3087 21.1005 27.427 19.6679 27.427C18.2323 27.427 17.0763 26.3087 17.0763 24.9302V20.5824C16.2093 19.8737 15.6499 18.8301 15.6499 17.6489C15.6499 15.5109 17.4492 13.7796 19.6679 13.7796C21.8867 13.7796 23.6859 15.5109 23.6859 17.6489C23.6859 18.8301 23.1235 19.8737 22.2596 20.5824ZM23.4063 8.28648C21.2466 6.13949 20.0719 5.90625 19.6679 5.90625C19.264 5.90625 18.0862 6.13949 15.9296 8.28648C12.6139 11.5817 8.86939 12.6492 5.86133 12.8675V15.4272C5.87997 15.8189 6.11614 19.3235 7.90295 23.3782C10.274 28.7517 14.2298 32.7616 19.6679 35.3003C21.5324 34.4272 23.1483 33.4135 24.5436 32.3131C24.5343 32.1008 24.525 31.8885 24.525 31.6702C24.525 26.3535 27.9059 21.7814 32.7008 19.8438C33.3565 17.4665 33.4621 15.7352 33.4715 15.4122V12.8675C30.4696 12.6492 26.722 11.5817 23.4063 8.28648Z" fill="#F7931D"/>
</svg>
