<svg width="55" height="54" viewBox="0 0 55 54" fill="none" xmlns="http://www.w3.org/2000/svg">
<mask id="mask0_644_14697" style="mask-type:luminance" maskUnits="userSpaceOnUse" x="0" y="0" width="55" height="54">
<path d="M0 0H54.146V54H0V0Z" fill="white"/>
</mask>
<g mask="url(#mask0_644_14697)">
<path fill-rule="evenodd" clip-rule="evenodd" d="M21.1074 3.17422V1.69225H18.5999V5.29008L21.1074 3.17422ZM14.5534 45.6711L16.5449 43.2329C16.781 42.9408 16.8903 42.573 16.8532 42.1944C16.8138 41.818 16.6302 41.4783 16.3372 41.2425C16.0443 41.0045 15.6749 40.8963 15.2945 40.9353C14.9163 40.9742 14.5752 41.156 14.3369 41.4459L12.3476 43.8841C12.1093 44.1761 12 44.5439 12.0393 44.9225C12.0787 45.299 12.2601 45.6386 12.5552 45.8745C12.846 46.1103 13.2176 46.2206 13.598 46.1817C13.9762 46.1427 14.3151 45.961 14.5534 45.6711ZM17.4281 48.886C17.4281 48.8882 17.4281 48.8882 17.4281 48.8882L16.6958 49.7838C16.2017 50.3896 15.3054 50.4826 14.6977 49.9894C14.4047 49.7536 14.2211 49.4139 14.1817 49.0353C14.1424 48.6588 14.2517 48.2911 14.49 47.999L18.8229 42.6942C19.059 42.4021 19.4 42.2204 19.7782 42.1814C19.8307 42.1771 19.881 42.1728 19.9291 42.1728C20.2548 42.1728 20.5674 42.2831 20.821 42.4886C21.4309 42.9798 21.5227 43.8733 21.0287 44.479L17.4281 48.886ZM22.6136 49.2733L23.6083 48.0531C23.8466 47.7632 23.9559 47.3954 23.9166 47.0168C23.8772 46.6403 23.6958 46.3007 23.4028 46.0648C23.1099 45.8269 22.7382 45.7187 22.36 45.7576C21.9796 45.7966 21.6408 45.9783 21.4025 46.2704L18.5343 49.7838C18.0402 50.3874 18.1321 51.281 18.742 51.7721C19.3497 52.2653 20.246 52.1723 20.7401 51.5665L22.6136 49.2733ZM25.7223 49.9634C26.0152 50.1992 26.1967 50.5389 26.236 50.9153C26.2754 51.2939 26.1661 51.6617 25.9278 51.9538L25.0512 53.0269C24.8129 53.3189 24.4718 53.5028 24.0936 53.5418C23.7132 53.5807 23.3438 53.4704 23.0508 53.2346C22.7579 52.9966 22.5743 52.6591 22.5349 52.2805C22.4956 51.904 22.6071 51.5362 22.8432 51.2442L23.722 50.1689C24.2161 49.5632 25.1124 49.4701 25.7223 49.9634ZM43.4889 21.6697L48.3684 39.4685L54.1354 37.9021L49.256 20.1033L43.4889 21.6697ZM5.78263 39.4685L10.6621 21.6697L4.89287 20.1033L0.015625 37.8999L5.78263 39.4685ZM42.7785 41.7444C43.5086 42.3632 43.5961 43.46 42.973 44.1891C42.35 44.9161 41.2482 45.0026 40.518 44.3838L39.7376 43.7218L39.7354 43.7197C39.7354 43.7197 39.7354 43.7197 39.7354 43.7175L33.8722 38.748C33.5705 38.4927 33.1201 38.5295 32.8644 38.8281C32.6108 39.1245 32.6458 39.5745 32.9453 39.8276L38.8128 44.7992C39.5408 45.4201 39.6304 46.5149 39.0074 47.2439C38.7079 47.5944 38.286 47.8086 37.8181 47.8432C37.3547 47.8822 36.9043 47.7372 36.5502 47.4386L31.0717 42.7937C30.7722 42.5384 30.3219 42.5752 30.0661 42.8737C29.8104 43.1723 29.8453 43.6201 30.147 43.8754L34.8428 47.8562C35.1948 48.1548 35.409 48.5745 35.4484 49.0374C35.4833 49.5026 35.3391 49.9483 35.0396 50.3009C34.7401 50.6514 34.3181 50.8634 33.8525 50.9024C33.3869 50.9391 32.9365 50.7942 32.5845 50.4956L31.8019 49.8314L28.2713 46.8394C27.9718 46.5862 27.5215 46.6209 27.2657 46.9194C27.0099 47.218 27.0471 47.6658 27.3466 47.9189L30.8772 50.9132C31.2291 51.2117 31.4434 51.6314 31.4806 52.0944C31.5177 52.5574 31.3712 53.0074 31.0717 53.3557C30.7722 53.7062 30.3503 53.9204 29.8847 53.9572C29.4212 53.9939 28.9687 53.8512 28.6167 53.5526L27.3094 52.4427C27.5936 51.9386 27.716 51.3588 27.6526 50.7682C27.5761 50.0132 27.2089 49.336 26.6186 48.86C26.1901 48.5117 25.6786 48.3019 25.1364 48.2435C25.6042 47.1163 25.3004 45.7685 24.3013 44.9615C23.8313 44.5807 23.2651 44.3665 22.6705 44.3341C22.9568 43.2826 22.6224 42.1144 21.7195 41.3853C21.1314 40.9093 20.3903 40.6886 19.6317 40.7687C19.0677 40.8271 18.5496 41.0435 18.1211 41.3896C17.9484 40.9028 17.6467 40.4723 17.2357 40.1391C16.0181 39.1548 14.2211 39.3386 13.2308 40.5502L12.8351 41.0348C11.3179 38.999 9.59523 37.9497 7.6933 37.8956L11.6305 23.5259C12.1924 23.6535 12.7564 23.7098 13.3204 23.7098C14.9556 23.7098 16.5952 23.2511 18.1998 22.7817C15.9263 24.9322 13.9456 27.4526 14.1511 30.4317C14.2342 31.6367 15.1305 32.6103 16.3263 32.8007C18.6414 33.1728 20.7576 31.7773 22.806 30.4273C23.8532 29.7372 24.9375 29.0233 26.0109 28.5754C26.5268 28.3591 27.0668 28.4435 27.4931 28.8004L42.7785 41.7444ZM33.2797 22.2971C36.4605 22.9591 39.4752 23.5865 42.5314 23.567L46.5845 38.3521C45.369 38.7523 44.2432 39.3906 43.2244 40.2581L28.4178 27.7209C27.5783 27.0134 26.4721 26.8447 25.46 27.2687C24.2641 27.7685 23.123 28.5192 22.0212 29.2461C20.1171 30.5009 18.3179 31.6843 16.5537 31.4031C16.0071 31.3144 15.6136 30.886 15.5743 30.3365C15.3426 26.9853 18.8316 24.0322 21.6342 21.6588C21.7829 21.5312 21.9315 21.4057 22.078 21.2824C22.3469 21.0531 22.6377 20.9449 22.9896 20.9406C26.5465 20.893 29.9699 21.6069 33.2797 22.2971ZM30.147 16.5401H24.004V19.5278C26.1114 19.5798 28.1533 19.861 30.147 20.2223V16.5401ZM36.6792 10.2141H17.474V21.5182C17.6642 21.462 17.8544 21.4057 18.0468 21.3495C18.8841 21.1028 19.7476 20.8519 20.6089 20.6615C20.6439 20.6334 20.6767 20.6031 20.7095 20.5749C20.8582 20.4495 21.0068 20.324 21.1511 20.2028C21.5708 19.8437 22.0518 19.6295 22.5786 19.5516V15.8305C22.5786 15.4389 22.8978 15.1209 23.2913 15.1209H30.8619C31.2554 15.1209 31.5746 15.4389 31.5746 15.8305V20.4949C32.2457 20.629 32.9125 20.7675 33.5727 20.9038C34.6264 21.1245 35.6604 21.3386 36.6813 21.529V10.2141H36.6792ZM27.0777 -0.00390625L37.499 8.79489H16.6564L27.0777 -0.00390625Z" fill="#F7931D"/>
</g>
</svg>
