<svg width="37" height="41" viewBox="0 0 37 41" fill="none" xmlns="http://www.w3.org/2000/svg">
<mask id="mask0_644_14787" style="mask-type:luminance" maskUnits="userSpaceOnUse" x="0" y="0" width="37" height="41">
<path d="M0 0H36.5208V40.4424H0V0Z" fill="white"/>
</mask>
<g mask="url(#mask0_644_14787)">
<path d="M27.8623 29.4179C27.7964 29.4788 27.7004 29.5121 27.5605 29.5287C27.4563 29.537 27.3081 29.5398 27.1188 29.5398C26.9597 29.5398 26.8362 29.5398 26.7457 29.5315C26.6469 29.5259 26.5674 29.5121 26.5098 29.4927C26.4302 29.4705 26.3699 29.4345 26.3287 29.3874C26.293 29.3458 26.2656 29.2987 26.2409 29.246L25.1984 27.2034L24.1504 29.2571C24.1257 29.307 24.0983 29.3513 24.0681 29.3874C24.0242 29.4345 23.9638 29.4705 23.8843 29.4927C23.8239 29.5121 23.7444 29.5259 23.6429 29.5315C23.5496 29.5398 23.4289 29.5398 23.2807 29.5398C23.1024 29.5398 22.968 29.537 22.872 29.5287C22.7375 29.5121 22.6442 29.4733 22.5866 29.4068C22.5372 29.3541 22.4879 29.2571 22.5345 29.1019C22.5565 29.0215 22.6003 28.919 22.6689 28.7943L24.1394 26.0643L22.7732 23.5061C22.7101 23.3731 22.6662 23.2733 22.6442 23.1902C22.5894 23.0184 22.6634 22.9186 22.7128 22.8742C22.7732 22.8133 22.8692 22.78 23.0091 22.7689C23.1106 22.7606 23.2588 22.7551 23.4481 22.7551C23.6072 22.7551 23.7306 22.7606 23.8239 22.7661C23.9254 22.7745 24.0077 22.7883 24.0681 22.8049C24.1504 22.8299 24.2135 22.8659 24.2547 22.9186C24.2848 22.9546 24.3068 22.9962 24.3315 23.0461L25.3026 24.903L26.2491 23.0433C26.2711 22.9962 26.2958 22.9546 26.326 22.9186C26.3644 22.8687 26.4247 22.8299 26.4988 22.8049C26.5619 22.7883 26.636 22.7745 26.7292 22.7661C26.8143 22.7606 26.935 22.7551 27.0859 22.7551C27.2532 22.7551 27.3877 22.7606 27.4837 22.7689C27.6154 22.7828 27.7114 22.8188 27.7745 22.8825C27.8184 22.9241 27.8842 23.0239 27.8403 23.1902C27.8184 23.2678 27.78 23.3676 27.7196 23.4978L26.3506 26.0504L27.8102 28.797C27.876 28.9217 27.9172 29.0243 27.9364 29.1047C27.9803 29.2737 27.9089 29.3735 27.8623 29.4179ZM21.0722 29.4234C21.0091 29.4816 20.9186 29.5176 20.7924 29.5287C20.6936 29.537 20.5674 29.5398 20.4001 29.5398C20.23 29.5398 20.1011 29.5398 20.005 29.5343C19.9035 29.5287 19.8212 29.5176 19.7581 29.4982C19.6758 29.4733 19.6155 29.4345 19.5743 29.3818C19.5469 29.3403 19.5222 29.2904 19.5057 29.2294L19.1162 28.0487H16.9653L16.5977 29.1961C16.584 29.2516 16.5593 29.307 16.5291 29.3541C16.4907 29.4123 16.4303 29.4567 16.3535 29.4844C16.2904 29.5093 16.2136 29.5232 16.1121 29.5315C15.9255 29.5481 15.5634 29.5453 15.3933 29.5259C15.2671 29.5121 15.1766 29.4705 15.119 29.4012C15.0751 29.3541 15.0284 29.2599 15.0504 29.1185C15.0613 29.0382 15.086 28.9384 15.1299 28.8109L17.075 23.1209C17.1025 23.0461 17.1299 22.9879 17.1656 22.9408C17.2122 22.8798 17.2808 22.8354 17.3658 22.8049C17.4372 22.7828 17.5277 22.7689 17.6429 22.7661C17.7444 22.7606 17.8816 22.7551 18.049 22.7551C18.2437 22.7551 18.4001 22.7606 18.5153 22.7661C18.6415 22.7689 18.7403 22.7828 18.8144 22.8049C18.9104 22.8327 18.9845 22.877 19.0339 22.9435C19.0695 22.9906 19.1024 23.0572 19.1244 23.1375L21.0777 28.8247C21.1216 28.9522 21.1463 29.052 21.1573 29.1324C21.1792 29.2848 21.1216 29.3763 21.0722 29.4234ZM13.9694 23.7417C13.9585 23.8249 13.9448 23.8886 13.9228 23.9441C13.8954 24.0106 13.8597 24.0605 13.8158 24.0965C13.7637 24.1408 13.7033 24.163 13.6402 24.163H12.2109V29.1795C12.2109 29.246 12.1889 29.3125 12.1451 29.3652C12.1066 29.4151 12.0463 29.4539 11.9695 29.4816C11.9146 29.4982 11.8378 29.5149 11.7445 29.5259C11.654 29.537 11.5442 29.5398 11.4153 29.5398C11.2836 29.5398 11.1739 29.537 11.0888 29.5259C10.9928 29.5149 10.916 29.4982 10.8611 29.4816C10.7843 29.4539 10.7239 29.4151 10.6828 29.3652C10.6416 29.3125 10.6197 29.246 10.6197 29.1795V24.163H9.19035C9.11902 24.163 9.05592 24.1381 9.00654 24.0965C8.96539 24.0605 8.93247 24.0106 8.90778 23.9441C8.88583 23.8886 8.86937 23.8249 8.86114 23.7417C8.85291 23.6697 8.84742 23.5782 8.84742 23.4757C8.84742 23.3703 8.85291 23.2789 8.86114 23.204C8.86937 23.1209 8.88583 23.0544 8.90778 23.0017C8.93247 22.9324 8.96813 22.8825 9.01203 22.8465C9.06141 22.8077 9.12451 22.7883 9.19035 22.7883H13.6402C13.7006 22.7883 13.7609 22.8077 13.8103 22.8437C13.857 22.8798 13.8954 22.9324 13.9228 23.0017C13.9448 23.0544 13.9585 23.1209 13.9694 23.204C13.9777 23.2789 13.9832 23.3703 13.9832 23.4757C13.9832 23.5782 13.9777 23.6697 13.9694 23.7417ZM34.7291 33.3701C34.4137 33.1733 34.3121 32.8019 34.3176 32.4277C34.6167 16.4415 26.4878 11.4721 22.23 8.50377C22.1449 8.4428 22.0956 8.34025 22.0379 8.25156C21.8047 7.90789 21.8294 7.44504 22.0709 7.10414L25.8294 3.05492C26.1668 2.58098 26.0516 1.89918 25.555 1.59985C24.8747 1.19244 23.7663 0.906969 22.2492 1.73289C21.7883 1.9851 21.2204 1.84375 20.9296 1.39753C20.5043 0.74899 19.7252 0.000673577 18.4001 0.0755048C17.0723 0.000673577 16.2932 0.74899 15.8679 1.39753C15.5799 1.84375 15.012 1.9851 14.5483 1.73289C13.0312 0.906969 11.9228 1.19244 11.2425 1.59985C10.7459 1.89918 10.6334 2.58098 10.9709 3.05492L14.7925 7.19283C15.086 7.60857 15.0092 8.18505 14.6142 8.50377C8.12041 11.9266 1.54984 18.1792 2.4442 31.9289C2.4881 32.5996 2.19729 33.2537 1.66232 33.6472C0.603348 34.4288 -0.661383 35.8672 1.67878 37.3112C1.73365 37.35 1.78852 37.375 1.84339 37.3944C2.67465 37.7131 8.74591 40.1465 18.3617 40.4431H18.4358C28.0543 40.1465 34.1228 37.7131 34.9569 37.3944C35.009 37.375 35.0639 37.35 35.1187 37.3112C37.7744 35.6732 35.7909 34.0408 34.7291 33.3701Z" fill="#F7931D"/>
</g>
<path d="M17.3477 26.7382H18.7194L18.0335 24.6484L17.3477 26.7382Z" fill="#F7931D"/>
</svg>
