<svg width="59" height="49" viewBox="0 0 59 49" fill="none" xmlns="http://www.w3.org/2000/svg">
<path d="M38.3574 16.4137V17.6925C35.822 17.7646 33.6284 20.2762 33.2625 23.6059L32.5963 29.5049L31.5269 29.8967C30.3545 30.3316 29.6927 31.9504 30.0718 33.4712L31.9126 40.9832C31.9236 41.0005 31.9301 41.0091 31.9367 41.0177C32.1558 41.3547 32.7124 42.1353 33.2625 42.1353C33.8125 42.1353 34.3691 41.3547 34.5817 41.0177C35.2785 39.9318 36.3063 39.2953 37.3932 39.2953C38.4736 39.2953 39.5013 39.9376 40.1982 41.0177C40.4064 41.3547 40.9739 42.1353 41.5239 42.1353C42.074 42.1353 42.6306 41.3547 42.8432 41.0177C43.54 39.9318 44.5678 39.2953 45.6481 39.2953C46.735 39.2953 47.7628 39.9376 48.4596 41.0177C48.6678 41.3547 49.2288 42.1353 49.7788 42.1353C50.3289 42.1353 50.8855 41.3547 51.1046 41.0177C51.1178 41.0005 51.1243 40.9918 51.1353 40.9832L52.976 33.4712C53.3486 31.9504 52.6934 30.3316 51.521 29.8967L50.4516 29.5049L49.792 23.6059C49.4195 20.2762 47.2259 17.7646 44.6883 17.6925V16.4137C44.6883 15.6187 44.193 14.9648 43.5882 14.9648H39.4575C38.8592 14.9648 38.3574 15.6187 38.3574 16.4137ZM44.5721 21.9094C45.5867 21.9094 46.4677 22.8974 46.6145 24.2252L47.0725 28.2577L42.1047 26.4143C41.7321 26.2703 41.3289 26.2703 40.9432 26.4143L35.9754 28.2577L36.4334 24.2252C36.5802 22.8974 37.4611 21.9094 38.4736 21.9094H44.5721Z" fill="#F7931D"/>
<mask id="mask0_644_14721" style="mask-type:luminance" maskUnits="userSpaceOnUse" x="24" y="42" width="35" height="7">
<path d="M24.6562 42.2148H58.0615V48.6669H24.6562V42.2148Z" fill="white"/>
</mask>
<g mask="url(#mask0_644_14721)">
<path d="M54.9064 43.0473C54.4177 42.284 53.4272 42.284 52.9385 43.0473C52.2833 44.0698 51.2139 45.2854 49.7917 45.2854C48.3673 45.2854 47.2914 44.0698 46.6449 43.0473C46.1562 42.284 45.1657 42.284 44.6771 43.0473C44.0219 44.0698 42.9525 45.2854 41.5303 45.2854C40.1059 45.2854 39.0299 44.0698 38.3835 43.0473C37.8948 42.284 36.9043 42.284 36.4156 43.0473C35.7604 44.0698 34.691 45.2854 33.2688 45.2854C31.8444 45.2854 30.7684 44.0698 30.122 43.0473C29.8766 42.67 29.5216 42.4453 29.1425 42.4453C28.7633 42.4453 28.4105 42.6613 28.1651 43.0415C27.5055 44.0612 26.423 45.2854 25.0117 45.2854V48.664C26.4975 48.664 27.9087 47.9324 29.1425 46.5326C30.3718 47.9151 31.8072 48.664 33.2732 48.664C34.7458 48.664 36.1767 47.9151 37.4039 46.5326C38.6398 47.9151 40.0686 48.664 41.5346 48.664C43.0072 48.664 44.4382 47.9151 45.6654 46.5326C46.9013 47.9151 48.3301 48.664 49.7983 48.664C51.2709 48.664 52.6997 47.9151 53.929 46.5326C55.1628 47.9151 56.5916 48.664 58.0598 48.664V45.2854C56.6288 45.2854 55.5528 44.0612 54.9064 43.0473Z" fill="#F7931D"/>
</g>
<mask id="mask1_644_14721" style="mask-type:luminance" maskUnits="userSpaceOnUse" x="0" y="24" width="23" height="25">
<path d="M0 24.5195H22.9743V48.6685H0V24.5195Z" fill="white"/>
</mask>
<g mask="url(#mask1_644_14721)">
<path d="M21.7929 33.1301H20.3379L19.6169 29.0428C19.2203 26.799 17.7038 25.2148 15.9573 25.2148H6.80397C5.05525 25.2148 3.54102 26.799 3.14219 29.0428L2.42123 33.1301H0.968347C0.435844 33.1301 0.00195312 33.7033 0.00195312 34.4032V36.0364C0.00195312 36.6701 0.356955 37.2087 0.832482 37.298L1.6148 37.442C1.52276 37.8539 1.46798 38.2802 1.46798 38.7295V47.3879C1.46798 48.0965 1.90187 48.6581 2.43437 48.6581H4.60383C5.16482 48.6581 5.6535 48.1368 5.75868 47.4023L6.14875 44.7322H16.5862L16.9763 47.4023C17.0881 48.1368 17.5702 48.6581 18.1333 48.6581H20.3006C20.8331 48.6581 21.267 48.0878 21.267 47.3879V38.7295C21.267 38.2802 21.2122 37.8539 21.1202 37.442L21.9025 37.298C22.3802 37.2087 22.733 36.6701 22.733 36.0364V34.4032C22.7571 33.7033 22.3232 33.1301 21.7929 33.1301ZM5.31164 29.7111C5.47161 28.7951 6.08739 28.1499 6.80397 28.1499H15.9507C16.6651 28.1499 17.2831 28.7951 17.4409 29.7111L18.267 34.3773H4.49426L5.31164 29.7111ZM6.76014 41.1433L3.65058 40.9676C3.39419 40.9503 3.17944 40.6853 3.16629 40.3396C3.14219 39.8097 3.13123 39.0118 3.20354 38.3781C3.24737 37.9835 3.5454 37.7243 3.83904 37.8308C4.79229 38.1765 6.13779 38.6431 6.7185 38.8447C6.89381 38.9081 7.02968 39.0838 7.07789 39.3171L7.27292 40.308C7.35838 40.7429 7.09542 41.1605 6.76014 41.1433ZM13.6827 40.4433C13.6827 40.6622 13.549 40.8379 13.3846 40.8379H9.38102C9.21666 40.8379 9.08299 40.6622 9.08299 40.4433V39.6887C9.08299 39.4698 9.21666 39.2941 9.38102 39.2941H13.3846C13.549 39.2941 13.6827 39.4698 13.6827 39.6887V40.4433ZM19.5994 40.3396C19.5862 40.6766 19.3737 40.9503 19.1151 40.9676L16.0055 41.1433C15.6637 41.1605 15.4073 40.7429 15.4927 40.308L15.6878 39.3171C15.736 39.0838 15.8719 38.9081 16.0494 38.8447C16.6301 38.6431 17.9734 38.1765 18.9266 37.8308C19.2203 37.7243 19.5183 37.9749 19.5621 38.3781C19.6344 39.0118 19.6169 39.8097 19.5994 40.3396Z" fill="#F7931D"/>
</g>
<mask id="mask2_644_14721" style="mask-type:luminance" maskUnits="userSpaceOnUse" x="6" y="0" width="34" height="21">
<path d="M6.14453 0H39.243V20.8308H6.14453V0Z" fill="white"/>
</mask>
<g mask="url(#mask2_644_14721)">
<path d="M9.81061 19.0602C10.4505 20.2671 11.601 20.7827 12.6638 20.3391L37.7046 10.0418C38.3335 9.78546 38.8222 9.16331 39.0544 8.33664C39.3481 7.29683 39.061 6.03523 38.3401 5.19128C36.7031 3.27584 34.4109 2.71129 32.3576 3.71654L26.1495 6.77548L18.0655 0.12184C17.9494 0.0239083 17.8025 0.000864984 17.6732 0.0584723L15.1751 1.08676C14.8332 1.22502 14.728 1.78669 14.9801 2.12369L20.5461 9.53487L11.7763 13.8554L8.55057 11.024C8.42785 10.9174 8.28103 10.8944 8.14736 10.952L6.58272 11.603C6.27812 11.7297 6.14883 12.2136 6.33948 12.5593L9.81061 19.0602Z" fill="#F7931D"/>
</g>
</svg>
