<svg width="24" height="24" viewBox="0 0 24 24" fill="none" xmlns="http://www.w3.org/2000/svg">
<mask id="mask0_644_13697" style="mask-type:luminance" maskUnits="userSpaceOnUse" x="2" y="2" width="20" height="20">
<path d="M2 2H22V22H2V2Z" fill="white"/>
</mask>
<g mask="url(#mask0_644_13697)">
<path d="M12 3.833C14.667 3.833 15 3.833 16.083 3.917C18.833 4 20.083 5.333 20.167 8C20.25 9.083 20.25 9.333 20.25 12C20.25 14.667 20.25 15 20.167 16C20.083 18.667 18.75 20 16.083 20.083C15 20.167 14.75 20.167 12 20.167C9.333 20.167 9 20.167 8 20.083C5.25 20 4 18.667 3.917 16C3.833 14.917 3.833 14.667 3.833 12C3.833 9.333 3.833 9 3.917 8C4 5.333 5.333 4 8 3.917C9 3.833 9.333 3.833 12 3.833ZM12 2C9.25 2 8.917 2 7.917 2.083C4.25 2.25 2.25 4.25 2.083 7.917C2 8.917 2 9.25 2 12C2 14.75 2 15.083 2.083 16.083C2.25 19.75 4.25 21.75 7.917 21.917C8.917 22 9.25 22 12 22C14.75 22 15.083 22 16.083 21.917C19.75 21.75 21.75 19.75 21.917 16.083C22 15.083 22 14.75 22 12C22 9.25 22 8.917 21.917 7.917C21.75 4.25 19.75 2.25 16.083 2.083C15.083 2 14.75 2 12 2ZM12 6.833C9.167 6.833 6.833 9.167 6.833 12C6.833 14.833 9.167 17.167 12 17.167C14.833 17.167 17.167 14.833 17.167 12C17.167 9.167 14.833 6.833 12 6.833ZM12 15.333C11.1168 15.3304 10.2706 14.9784 9.64613 14.3539C9.02164 13.7294 8.66964 12.8832 8.667 12C8.667 10.167 10.167 8.667 12 8.667C13.833 8.667 15.333 10.167 15.333 12C15.333 13.833 13.833 15.333 12 15.333ZM17.333 5.5C16.667 5.5 16.167 6 16.167 6.667C16.167 7.333 16.667 7.833 17.333 7.833C18 7.833 18.5 7.333 18.5 6.667C18.5 6 18 5.5 17.333 5.5Z" fill="#F7931D"/>
</g>
</svg>
