<svg width="24" height="24" viewBox="0 0 24 24" fill="none" xmlns="http://www.w3.org/2000/svg">
<mask id="mask0_644_13704" style="mask-type:luminance" maskUnits="userSpaceOnUse" x="1" y="1" width="22" height="20">
<path d="M1 1H23V21H1V1Z" fill="white"/>
</mask>
<g mask="url(#mask0_644_13704)">
<path d="M5.583 3.174C5.583 4.391 4.575 5.348 3.292 5.348C2.008 5.348 1 4.39 1 3.174C1 1.958 2.008 1 3.292 1C4.575 1 5.583 1.957 5.583 3.174ZM5.583 7.087H1V21H5.583V7.087ZM12.917 7.087H8.333V21H12.917V13.696C12.917 9.609 18.417 9.261 18.417 13.696V21H23V12.217C23 5.347 14.842 5.61 12.917 9V7.087Z" fill="#F7931D"/>
</g>
</svg>
