<svg width="60" height="60" viewBox="0 0 60 60" fill="none" xmlns="http://www.w3.org/2000/svg">
<path d="M19.7348 3.46094L2.85742 55.9668L4.64336 56.5293L21.516 4.03516L19.7348 3.46094ZM40.266 3.46094L38.4848 4.03516L55.3598 56.5293L57.141 55.9668L40.266 3.46094ZM29.0629 3.74805L28.9691 6.0918H31.0316L30.9379 3.74805H29.0629ZM28.8988 7.9668L28.8051 10.3105H31.1957L31.102 7.9668H28.8988ZM28.723 12.1855L28.5707 15.9355H31.4301L31.2777 12.1855H28.723ZM28.5004 17.8105L28.266 23.4355H31.7348L31.5004 17.8105H28.5004ZM28.1723 25.7793L27.891 32.8105H32.1098L31.8285 25.7793H28.1723ZM27.7855 35.623L27.4457 44.0605H32.5551L32.2152 35.623H27.7855ZM27.3168 47.3418L26.9535 56.248H33.0473L32.684 47.3418H27.3168Z" fill="#F7931D"/>
</svg>
