<svg width="36" height="37" viewBox="0 0 36 37" fill="none" xmlns="http://www.w3.org/2000/svg">
<path d="M18.2286 36.6698C11.4592 36.6698 5.36005 32.9332 2.24345 26.9178C2.19318 26.8676 2.15965 26.8006 2.12614 26.7335C0.85269 24.1866 0.199219 21.4722 0.199219 18.6572C0.199219 15.8422 0.85269 13.1277 2.12614 10.5808C5.20923 4.44812 11.3754 0.644531 18.2119 0.644531C22.803 0.644531 26.9752 2.26984 30.2761 5.33617C30.5275 5.57076 30.6783 5.88913 30.6783 6.24101C30.6783 6.59288 30.5442 6.91128 30.2929 7.16262L25.5677 11.7872C25.0818 12.2564 24.3278 12.2732 23.8251 11.804C22.7695 10.8154 20.9431 9.64246 18.2119 9.64246C14.7601 9.64246 11.5933 11.7202 10.169 14.9541C10.0517 15.2222 9.95117 15.4735 9.85063 15.7584C9.53227 16.7302 9.38147 17.7189 9.38147 18.6739C9.38147 19.629 9.54902 20.5841 9.85063 21.5392C9.85063 21.5559 9.86739 21.5727 9.86739 21.6062C11.0738 25.259 14.425 27.7054 18.2119 27.7054C20.2058 27.7054 21.9149 27.2195 23.3057 26.2476C24.5791 25.3595 25.3834 24.1699 25.819 23.0975H18.2286C17.5416 23.0975 16.9719 22.5278 16.9719 21.8408V15.6243C16.9719 14.9374 17.5416 14.3677 18.2286 14.3677H33.9624C34.5489 14.3677 35.0516 14.7698 35.1856 15.3395C35.4537 16.5124 35.571 17.6183 35.571 19.0426C35.571 24.371 33.6608 29.0794 30.1756 32.2965C27.0757 35.145 22.937 36.6698 18.2286 36.6698ZM4.28766 25.4433C4.33793 25.5103 4.3882 25.5941 4.42171 25.6779C7.05239 30.889 12.3473 34.1564 18.2286 34.1564C22.3003 34.1564 25.8358 32.8662 28.4665 30.4366C31.4323 27.7054 33.0576 23.6504 33.0576 19.0258C33.0576 18.188 33.0241 17.5178 32.9236 16.8643H19.4853V20.5674H27.4611C27.813 20.5674 28.1649 20.7182 28.3995 20.9863C28.634 21.2544 28.7513 21.623 28.7011 21.9749C28.4832 23.8515 27.3103 26.4989 24.7467 28.2918C22.937 29.5485 20.742 30.202 18.2119 30.202C13.3694 30.202 9.07987 27.0854 7.50481 22.4273C7.50481 22.4105 7.48805 22.3937 7.48805 22.377C7.06915 21.1538 6.86807 19.9139 6.86807 18.6739C6.86807 17.4508 7.06915 16.2108 7.47129 14.9708C7.58858 14.6022 7.72263 14.2671 7.87343 13.932C9.71658 9.79326 13.7715 7.12907 18.2119 7.12907C21.0771 7.12907 23.1884 8.13445 24.6294 9.19007L27.5617 6.32482C24.9142 4.24708 21.6971 3.15792 18.2119 3.15792C12.3305 3.15792 7.01888 6.42534 4.37144 11.7035C3.28231 13.8985 2.71261 16.2443 2.71261 18.6572C2.72937 21.0198 3.24879 23.2985 4.28766 25.4433Z" fill="#F7931D"/>
</svg>
